<svg width="16" height="16" viewBox="0 0 16 16" fill="none" xmlns="http://www.w3.org/2000/svg">
  <rect width="16" height="16" rx="4" fill="#BB52ED" />
  <path
    d="M4.75852 12V3.27273H8.2017C8.8608 3.27273 9.4233 3.39062 9.8892 3.62642C10.358 3.85937 10.7145 4.19034 10.9588 4.61932C11.206 5.04545 11.3295 5.54687 11.3295 6.12358C11.3295 6.70312 11.2045 7.2017 10.9545 7.61932C10.7045 8.03409 10.3423 8.35227 9.8679 8.57386C9.39631 8.79545 8.82528 8.90625 8.15483 8.90625H5.84943V7.4233H7.85653C8.20881 7.4233 8.50142 7.375 8.73438 7.27841C8.96733 7.18182 9.14063 7.03693 9.25426 6.84375C9.37074 6.65057 9.42898 6.41051 9.42898 6.12358C9.42898 5.83381 9.37074 5.58949 9.25426 5.39062C9.14063 5.19176 8.96591 5.04119 8.73011 4.93892C8.49716 4.83381 8.20313 4.78125 7.84801 4.78125H6.60369V12H4.75852ZM9.47159 8.02841L11.6406 12H9.60369L7.48153 8.02841H9.47159Z"
    fill="#140E25" />
</svg>